<?xml version="1.0" encoding="UTF-8" standalone="no"?>
<!DOCTYPE svg PUBLIC "-//W3C//DTD SVG 1.1//EN"
 "http://www.w3.org/Graphics/SVG/1.1/DTD/svg11.dtd">
<!-- Generated by graphviz version 8.1.0 (20230707.0739)
 -->
<!-- Title: dependency&#45;cruiser output Pages: 1 -->
<svg width="530pt" height="180pt"
 viewBox="0.00 0.00 529.50 180.00" xmlns="http://www.w3.org/2000/svg" xmlns:xlink="http://www.w3.org/1999/xlink">
<g id="graph0" class="graph" transform="scale(1 1) rotate(0) translate(4 176)">
<title>dependency&#45;cruiser output</title>
<polygon fill="white" stroke="none" points="-4,4 -4,-176 525.5,-176 525.5,4 -4,4"/>
<g id="clust1" class="cluster">
<title>cluster_src</title>
<path fill="#ffffff" stroke="black" stroke-width="2" d="M20,-8C20,-8 501.5,-8 501.5,-8 507.5,-8 513.5,-14 513.5,-20 513.5,-20 513.5,-152 513.5,-152 513.5,-158 507.5,-164 501.5,-164 501.5,-164 20,-164 20,-164 14,-164 8,-158 8,-152 8,-152 8,-20 8,-20 8,-14 14,-8 20,-8"/>
<text text-anchor="middle" x="260.75" y="-151.45" font-family="Helvetica,sans-Serif" font-weight="bold" font-size="9.00">src</text>
</g>
<!-- src/commandHandler.ts -->
<g id="node1" class="node">
<title>src/commandHandler.ts</title>
<g id="a_node1"><a xlink:href="src/commandHandler.ts" xlink:title="commandHandler.ts">
<path fill="#ddfeff" stroke="black" d="M315.83,-33.88C315.83,-33.88 229.17,-33.88 229.17,-33.88 226.21,-33.88 223.25,-30.92 223.25,-27.96 223.25,-27.96 223.25,-22.04 223.25,-22.04 223.25,-19.08 226.21,-16.12 229.17,-16.12 229.17,-16.12 315.83,-16.12 315.83,-16.12 318.79,-16.12 321.75,-19.08 321.75,-22.04 321.75,-22.04 321.75,-27.96 321.75,-27.96 321.75,-30.92 318.79,-33.88 315.83,-33.88"/>
<text text-anchor="start" x="231.25" y="-21.32" font-family="Helvetica,sans-Serif" font-size="9.00">commandHandler.ts</text>
</a>
</g>
</g>
<!-- src/entry.ts -->
<g id="node2" class="node">
<title>src/entry.ts</title>
<g id="a_node2"><a xlink:href="src/entry.ts" xlink:title="entry.ts">
<path fill="#ddfeff" stroke="black" d="M499.58,-85.88C499.58,-85.88 457.42,-85.88 457.42,-85.88 454.46,-85.88 451.5,-82.92 451.5,-79.96 451.5,-79.96 451.5,-74.04 451.5,-74.04 451.5,-71.08 454.46,-68.12 457.42,-68.12 457.42,-68.12 499.58,-68.12 499.58,-68.12 502.54,-68.12 505.5,-71.08 505.5,-74.04 505.5,-74.04 505.5,-79.96 505.5,-79.96 505.5,-82.92 502.54,-85.88 499.58,-85.88"/>
<text text-anchor="start" x="463.88" y="-73.33" font-family="Helvetica,sans-Serif" font-size="9.00">entry.ts</text>
</a>
</g>
</g>
<!-- src/commandHandler.ts&#45;&gt;src/entry.ts -->
<g id="edge1" class="edge">
<title>src/commandHandler.ts&#45;&gt;src/entry.ts</title>
<path fill="none" stroke="#000000" stroke-width="2" stroke-opacity="0.200000" d="M322.16,-17.26C356.39,-14.1 402.35,-14.56 438.5,-32 450.99,-38.03 461.1,-50.09 467.89,-60.21"/>
<polygon fill="#000000" fill-opacity="0.200000" stroke="#000000" stroke-width="2" stroke-opacity="0.200000" points="466.65,-61.79 471.61,-65.76 470.21,-59.56 466.65,-61.79"/>
</g>
<!-- src/uid.ts -->
<g id="node3" class="node">
<title>src/uid.ts</title>
<g id="a_node3"><a xlink:href="src/uid.ts" xlink:title="uid.ts">
<path fill="#ddfeff" stroke="black" d="M411.08,-55.88C411.08,-55.88 368.92,-55.88 368.92,-55.88 365.96,-55.88 363,-52.92 363,-49.96 363,-49.96 363,-44.04 363,-44.04 363,-41.08 365.96,-38.12 368.92,-38.12 368.92,-38.12 411.08,-38.12 411.08,-38.12 414.04,-38.12 417,-41.08 417,-44.04 417,-44.04 417,-49.96 417,-49.96 417,-52.92 414.04,-55.88 411.08,-55.88"/>
<text text-anchor="start" x="379.12" y="-43.33" font-family="Helvetica,sans-Serif" font-size="9.00">uid.ts</text>
</a>
</g>
</g>
<!-- src/commandHandler.ts&#45;&gt;src/uid.ts -->
<g id="edge2" class="edge">
<title>src/commandHandler.ts&#45;&gt;src/uid.ts</title>
<path fill="none" stroke="#000000" stroke-width="2" stroke-opacity="0.200000" d="M322.15,-34.27C332.92,-36.32 344.13,-38.45 354.23,-40.38"/>
<polygon fill="#000000" fill-opacity="0.200000" stroke="#000000" stroke-width="2" stroke-opacity="0.200000" points="354.48,-42.94 360.77,-42 355.27,-38.82 354.48,-42.94"/>
</g>
<!-- src/configLoader.ts -->
<g id="node4" class="node">
<title>src/configLoader.ts</title>
<g id="a_node4"><a xlink:href="src/configLoader.ts" xlink:title="configLoader.ts">
<path fill="#ccffcc" stroke="black" d="M89.08,-131.88C89.08,-131.88 21.92,-131.88 21.92,-131.88 18.96,-131.88 16,-128.92 16,-125.96 16,-125.96 16,-120.04 16,-120.04 16,-117.08 18.96,-114.12 21.92,-114.12 21.92,-114.12 89.08,-114.12 89.08,-114.12 92.04,-114.12 95,-117.08 95,-120.04 95,-120.04 95,-125.96 95,-125.96 95,-128.92 92.04,-131.88 89.08,-131.88"/>
<text text-anchor="start" x="24" y="-119.33" font-family="Helvetica,sans-Serif" font-size="9.00">configLoader.ts</text>
</a>
</g>
</g>
<!-- src/dataLayerLoader.ts -->
<g id="node5" class="node">
<title>src/dataLayerLoader.ts</title>
<g id="a_node5"><a xlink:href="src/dataLayerLoader.ts" xlink:title="dataLayerLoader.ts">
<path fill="#ddfeff" stroke="black" d="M197.58,-85.88C197.58,-85.88 113.92,-85.88 113.92,-85.88 110.96,-85.88 108,-82.92 108,-79.96 108,-79.96 108,-74.04 108,-74.04 108,-71.08 110.96,-68.12 113.92,-68.12 113.92,-68.12 197.58,-68.12 197.58,-68.12 200.54,-68.12 203.5,-71.08 203.5,-74.04 203.5,-74.04 203.5,-79.96 203.5,-79.96 203.5,-82.92 200.54,-85.88 197.58,-85.88"/>
<text text-anchor="start" x="116" y="-73.33" font-family="Helvetica,sans-Serif" font-size="9.00">dataLayerLoader.ts</text>
</a>
</g>
</g>
<!-- src/dataLayerLoader.ts&#45;&gt;src/commandHandler.ts -->
<g id="edge3" class="edge">
<title>src/dataLayerLoader.ts&#45;&gt;src/commandHandler.ts</title>
<path fill="none" stroke="#000000" stroke-width="2" stroke-opacity="0.200000" d="M169.44,-67.63C181.15,-59.36 199.27,-47.5 216.5,-40 218.8,-39 221.18,-38.05 223.6,-37.15"/>
<polygon fill="#000000" fill-opacity="0.200000" stroke="#000000" stroke-width="2" stroke-opacity="0.200000" points="224.97,-38.22 229.96,-34.3 223.61,-34.25 224.97,-38.22"/>
</g>
<!-- src/dispatcher.ts -->
<g id="node6" class="node">
<title>src/dispatcher.ts</title>
<g id="a_node6"><a xlink:href="src/dispatcher.ts" xlink:title="dispatcher.ts">
<path fill="#ddfeff" stroke="black" d="M300.46,-63.88C300.46,-63.88 244.54,-63.88 244.54,-63.88 241.58,-63.88 238.62,-60.92 238.62,-57.96 238.62,-57.96 238.62,-52.04 238.62,-52.04 238.62,-49.08 241.58,-46.12 244.54,-46.12 244.54,-46.12 300.46,-46.12 300.46,-46.12 303.42,-46.12 306.38,-49.08 306.38,-52.04 306.38,-52.04 306.38,-57.96 306.38,-57.96 306.38,-60.92 303.42,-63.88 300.46,-63.88"/>
<text text-anchor="start" x="246.62" y="-51.33" font-family="Helvetica,sans-Serif" font-size="9.00">dispatcher.ts</text>
</a>
</g>
</g>
<!-- src/dataLayerLoader.ts&#45;&gt;src/dispatcher.ts -->
<g id="edge4" class="edge">
<title>src/dataLayerLoader.ts&#45;&gt;src/dispatcher.ts</title>
<path fill="none" stroke="#000000" stroke-width="2" stroke-opacity="0.200000" d="M203.75,-67.99C212.39,-66.33 221.35,-64.61 229.82,-62.99"/>
<polygon fill="#000000" fill-opacity="0.200000" stroke="#000000" stroke-width="2" stroke-opacity="0.200000" points="230.93,-64.53 236.43,-61.34 230.14,-60.41 230.93,-64.53"/>
</g>
<!-- src/entryRepository.ts -->
<g id="node7" class="node">
<title>src/entryRepository.ts</title>
<g id="a_node7"><a xlink:href="src/entryRepository.ts" xlink:title="entryRepository.ts">
<path fill="#ddfeff" stroke="black" d="M428.83,-85.88C428.83,-85.88 351.17,-85.88 351.17,-85.88 348.21,-85.88 345.25,-82.92 345.25,-79.96 345.25,-79.96 345.25,-74.04 345.25,-74.04 345.25,-71.08 348.21,-68.12 351.17,-68.12 351.17,-68.12 428.83,-68.12 428.83,-68.12 431.79,-68.12 434.75,-71.08 434.75,-74.04 434.75,-74.04 434.75,-79.96 434.75,-79.96 434.75,-82.92 431.79,-85.88 428.83,-85.88"/>
<text text-anchor="start" x="353.25" y="-73.33" font-family="Helvetica,sans-Serif" font-size="9.00">entryRepository.ts</text>
</a>
</g>
</g>
<!-- src/dataLayerLoader.ts&#45;&gt;src/entryRepository.ts -->
<g id="edge5" class="edge">
<title>src/dataLayerLoader.ts&#45;&gt;src/entryRepository.ts</title>
<path fill="none" stroke="#000000" stroke-width="2" stroke-opacity="0.200000" d="M203.75,-77C242.07,-77 296.19,-77 336.04,-77"/>
<polygon fill="#000000" fill-opacity="0.200000" stroke="#000000" stroke-width="2" stroke-opacity="0.200000" points="335.82,-79.1 341.82,-77 335.82,-74.9 335.82,-79.1"/>
</g>
<!-- src/fileStoreAdapter.ts -->
<g id="node8" class="node">
<title>src/fileStoreAdapter.ts</title>
<g id="a_node8"><a xlink:href="src/fileStoreAdapter.ts" xlink:title="fileStoreAdapter.ts">
<path fill="#ddfeff" stroke="black" d="M312.08,-107.88C312.08,-107.88 232.92,-107.88 232.92,-107.88 229.96,-107.88 227,-104.92 227,-101.96 227,-101.96 227,-96.04 227,-96.04 227,-93.08 229.96,-90.12 232.92,-90.12 232.92,-90.12 312.08,-90.12 312.08,-90.12 315.04,-90.12 318,-93.08 318,-96.04 318,-96.04 318,-101.96 318,-101.96 318,-104.92 315.04,-107.88 312.08,-107.88"/>
<text text-anchor="start" x="235" y="-95.33" font-family="Helvetica,sans-Serif" font-size="9.00">fileStoreAdapter.ts</text>
</a>
</g>
</g>
<!-- src/dataLayerLoader.ts&#45;&gt;src/fileStoreAdapter.ts -->
<g id="edge6" class="edge">
<title>src/dataLayerLoader.ts&#45;&gt;src/fileStoreAdapter.ts</title>
<path fill="none" stroke="#000000" stroke-width="2" stroke-opacity="0.200000" d="M203.75,-86.01C208.47,-86.92 213.29,-87.84 218.07,-88.76"/>
<polygon fill="#000000" fill-opacity="0.200000" stroke="#000000" stroke-width="2" stroke-opacity="0.200000" points="218.32,-91.33 224.6,-90.39 219.11,-87.2 218.32,-91.33"/>
</g>
<!-- src/memoryStoreAdapter.ts -->
<g id="node9" class="node">
<title>src/memoryStoreAdapter.ts</title>
<g id="a_node9"><a xlink:href="src/memoryStoreAdapter.ts" xlink:title="memoryStoreAdapter.ts">
<path fill="#ddfeff" stroke="black" d="M322.58,-137.88C322.58,-137.88 222.42,-137.88 222.42,-137.88 219.46,-137.88 216.5,-134.92 216.5,-131.96 216.5,-131.96 216.5,-126.04 216.5,-126.04 216.5,-123.08 219.46,-120.12 222.42,-120.12 222.42,-120.12 322.58,-120.12 322.58,-120.12 325.54,-120.12 328.5,-123.08 328.5,-126.04 328.5,-126.04 328.5,-131.96 328.5,-131.96 328.5,-134.92 325.54,-137.88 322.58,-137.88"/>
<text text-anchor="start" x="224.5" y="-125.33" font-family="Helvetica,sans-Serif" font-size="9.00">memoryStoreAdapter.ts</text>
</a>
</g>
</g>
<!-- src/dataLayerLoader.ts&#45;&gt;src/memoryStoreAdapter.ts -->
<g id="edge7" class="edge">
<title>src/dataLayerLoader.ts&#45;&gt;src/memoryStoreAdapter.ts</title>
<path fill="none" stroke="#000000" stroke-width="2" stroke-opacity="0.200000" d="M194.27,-86.24C197.56,-87.86 200.7,-89.77 203.5,-92 212.38,-99.09 207.47,-107.11 216.5,-114 217.14,-114.49 217.79,-114.96 218.45,-115.41"/>
<polygon fill="#000000" fill-opacity="0.200000" stroke="#000000" stroke-width="2" stroke-opacity="0.200000" points="217.76,-117.57 224.01,-118.73 219.84,-113.93 217.76,-117.57"/>
</g>
<!-- src/entryRepository.ts&#45;&gt;src/entry.ts -->
<g id="edge9" class="edge">
<title>src/entryRepository.ts&#45;&gt;src/entry.ts</title>
<path fill="none" stroke="#000000" stroke-width="2" stroke-opacity="0.200000" d="M435.01,-77C437.42,-77 439.83,-77 442.2,-77"/>
<polygon fill="#000000" fill-opacity="0.200000" stroke="#000000" stroke-width="2" stroke-opacity="0.200000" points="442.13,-79.1 448.13,-77 442.13,-74.9 442.13,-79.1"/>
</g>
<!-- src/dataStoreAdapter.ts -->
<g id="node10" class="node">
<title>src/dataStoreAdapter.ts</title>
<g id="a_node10"><a xlink:href="src/dataStoreAdapter.ts" xlink:title="dataStoreAdapter.ts">
<path fill="#ddfeff" stroke="black" d="M432.58,-115.88C432.58,-115.88 347.42,-115.88 347.42,-115.88 344.46,-115.88 341.5,-112.92 341.5,-109.96 341.5,-109.96 341.5,-104.04 341.5,-104.04 341.5,-101.08 344.46,-98.12 347.42,-98.12 347.42,-98.12 432.58,-98.12 432.58,-98.12 435.54,-98.12 438.5,-101.08 438.5,-104.04 438.5,-104.04 438.5,-109.96 438.5,-109.96 438.5,-112.92 435.54,-115.88 432.58,-115.88"/>
<text text-anchor="start" x="349.5" y="-103.33" font-family="Helvetica,sans-Serif" font-size="9.00">dataStoreAdapter.ts</text>
</a>
</g>
</g>
<!-- src/fileStoreAdapter.ts&#45;&gt;src/dataStoreAdapter.ts -->
<g id="edge10" class="edge">
<title>src/fileStoreAdapter.ts&#45;&gt;src/dataStoreAdapter.ts</title>
<path fill="none" stroke="#000000" stroke-width="2" stroke-opacity="0.200000" d="M318.49,-102.12C323.04,-102.43 327.71,-102.75 332.36,-103.08"/>
<polygon fill="#000000" fill-opacity="0.200000" stroke="#000000" stroke-width="2" stroke-opacity="0.200000" points="332.14,-105.37 338.27,-103.69 332.43,-101.18 332.14,-105.37"/>
</g>
<!-- src/memoryStoreAdapter.ts&#45;&gt;src/dataStoreAdapter.ts -->
<g id="edge13" class="edge">
<title>src/memoryStoreAdapter.ts&#45;&gt;src/dataStoreAdapter.ts</title>
<path fill="none" stroke="#000000" stroke-width="2" stroke-opacity="0.200000" d="M322.48,-119.67C325.75,-119.05 329.05,-118.42 332.35,-117.79"/>
<polygon fill="#000000" fill-opacity="0.200000" stroke="#000000" stroke-width="2" stroke-opacity="0.200000" points="333.55,-119.32 339.05,-116.13 332.76,-115.19 333.55,-119.32"/>
</g>
<!-- src/dataStoreAdapter.ts&#45;&gt;src/entry.ts -->
<g id="edge8" class="edge">
<title>src/dataStoreAdapter.ts&#45;&gt;src/entry.ts</title>
<path fill="none" stroke="#000000" stroke-width="2" stroke-opacity="0.200000" d="M421.5,-97.67C427.17,-95.85 433.03,-93.91 438.5,-92 440.88,-91.17 443.32,-90.29 445.78,-89.39"/>
<polygon fill="#000000" fill-opacity="0.200000" stroke="#000000" stroke-width="2" stroke-opacity="0.200000" points="447.19,-91.35 452.08,-87.28 445.72,-87.42 447.19,-91.35"/>
</g>
<!-- src/index.ts -->
<g id="node11" class="node">
<title>src/index.ts</title>
<g id="a_node11"><a xlink:href="src/index.ts" xlink:title="index.ts">
<path fill="#ddfeff" stroke="black" d="M76.58,-90.88C76.58,-90.88 34.42,-90.88 34.42,-90.88 31.46,-90.88 28.5,-87.92 28.5,-84.96 28.5,-84.96 28.5,-79.04 28.5,-79.04 28.5,-76.08 31.46,-73.12 34.42,-73.12 34.42,-73.12 76.58,-73.12 76.58,-73.12 79.54,-73.12 82.5,-76.08 82.5,-79.04 82.5,-79.04 82.5,-84.96 82.5,-84.96 82.5,-87.92 79.54,-90.88 76.58,-90.88"/>
<text text-anchor="start" x="39.75" y="-78.33" font-family="Helvetica,sans-Serif" font-size="9.00">index.ts</text>
</a>
</g>
</g>
<!-- src/index.ts&#45;&gt;src/dataLayerLoader.ts -->
<g id="edge11" class="edge">
<title>src/index.ts&#45;&gt;src/dataLayerLoader.ts</title>
<path fill="none" stroke="#000000" stroke-width="2" stroke-opacity="0.200000" d="M82.83,-80.66C87.9,-80.4 93.39,-80.12 99,-79.84"/>
<polygon fill="#000000" fill-opacity="0.200000" stroke="#000000" stroke-width="2" stroke-opacity="0.200000" points="98.98,-81.79 104.86,-79.39 98.77,-77.59 98.98,-81.79"/>
</g>
<!-- src/parser.ts -->
<g id="node12" class="node">
<title>src/parser.ts</title>
<g id="a_node12"><a xlink:href="src/parser.ts" xlink:title="parser.ts">
<path fill="#ddfeff" stroke="black" d="M176.83,-115.88C176.83,-115.88 134.67,-115.88 134.67,-115.88 131.71,-115.88 128.75,-112.92 128.75,-109.96 128.75,-109.96 128.75,-104.04 128.75,-104.04 128.75,-101.08 131.71,-98.12 134.67,-98.12 134.67,-98.12 176.83,-98.12 176.83,-98.12 179.79,-98.12 182.75,-101.08 182.75,-104.04 182.75,-104.04 182.75,-109.96 182.75,-109.96 182.75,-112.92 179.79,-115.88 176.83,-115.88"/>
<text text-anchor="start" x="138.12" y="-103.33" font-family="Helvetica,sans-Serif" font-size="9.00">parser.ts</text>
</a>
</g>
</g>
<!-- src/index.ts&#45;&gt;src/parser.ts -->
<g id="edge12" class="edge">
<title>src/index.ts&#45;&gt;src/parser.ts</title>
<path fill="none" stroke="#000000" stroke-width="2" stroke-opacity="0.200000" d="M82.83,-88.7C94.17,-91.59 107.6,-95 119.76,-98.1"/>
<polygon fill="#000000" fill-opacity="0.200000" stroke="#000000" stroke-width="2" stroke-opacity="0.200000" points="120.02,-100.84 126.35,-100.28 121.05,-96.77 120.02,-100.84"/>
</g>
</g>
</svg>
