<?xml version="1.0" encoding="UTF-8" standalone="no"?>
<!DOCTYPE svg PUBLIC "-//W3C//DTD SVG 1.1//EN"
 "http://www.w3.org/Graphics/SVG/1.1/DTD/svg11.dtd">
<!-- Generated by graphviz version 8.1.0 (20230707.0739)
 -->
<!-- Title: dependency&#45;cruiser output Pages: 1 -->
<svg width="530pt" height="194pt"
 viewBox="0.00 0.00 529.50 194.00" xmlns="http://www.w3.org/2000/svg" xmlns:xlink="http://www.w3.org/1999/xlink">
<g id="graph0" class="graph" transform="scale(1 1) rotate(0) translate(4 190)">
<title>dependency&#45;cruiser output</title>
<polygon fill="white" stroke="none" points="-4,4 -4,-190 525.5,-190 525.5,4 -4,4"/>
<g id="clust1" class="cluster">
<title>cluster_src</title>
<path fill="#ffffff" stroke="black" stroke-width="2" d="M20,-8C20,-8 501.5,-8 501.5,-8 507.5,-8 513.5,-14 513.5,-20 513.5,-20 513.5,-166 513.5,-166 513.5,-172 507.5,-178 501.5,-178 501.5,-178 20,-178 20,-178 14,-178 8,-172 8,-166 8,-166 8,-20 8,-20 8,-14 14,-8 20,-8"/>
<text text-anchor="middle" x="260.75" y="-165.45" font-family="Helvetica,sans-Serif" font-weight="bold" font-size="9.00">src</text>
</g>
<!-- src/commandHandler.ts -->
<g id="node1" class="node">
<title>src/commandHandler.ts</title>
<g id="a_node1"><a xlink:href="src/commandHandler.ts" xlink:title="commandHandler.ts">
<path fill="#ddfeff" stroke="black" d="M315.83,-93.88C315.83,-93.88 229.17,-93.88 229.17,-93.88 226.21,-93.88 223.25,-90.92 223.25,-87.96 223.25,-87.96 223.25,-82.04 223.25,-82.04 223.25,-79.08 226.21,-76.12 229.17,-76.12 229.17,-76.12 315.83,-76.12 315.83,-76.12 318.79,-76.12 321.75,-79.08 321.75,-82.04 321.75,-82.04 321.75,-87.96 321.75,-87.96 321.75,-90.92 318.79,-93.88 315.83,-93.88"/>
<text text-anchor="start" x="231.25" y="-81.33" font-family="Helvetica,sans-Serif" font-size="9.00">commandHandler.ts</text>
</a>
</g>
</g>
<!-- src/entry.ts -->
<g id="node2" class="node">
<title>src/entry.ts</title>
<g id="a_node2"><a xlink:href="src/entry.ts" xlink:title="entry.ts">
<path fill="#ddfeff" stroke="black" d="M499.58,-126.88C499.58,-126.88 457.42,-126.88 457.42,-126.88 454.46,-126.88 451.5,-123.92 451.5,-120.96 451.5,-120.96 451.5,-115.04 451.5,-115.04 451.5,-112.08 454.46,-109.12 457.42,-109.12 457.42,-109.12 499.58,-109.12 499.58,-109.12 502.54,-109.12 505.5,-112.08 505.5,-115.04 505.5,-115.04 505.5,-120.96 505.5,-120.96 505.5,-123.92 502.54,-126.88 499.58,-126.88"/>
<text text-anchor="start" x="463.88" y="-114.33" font-family="Helvetica,sans-Serif" font-size="9.00">entry.ts</text>
</a>
</g>
</g>
<!-- src/commandHandler.ts&#45;&gt;src/entry.ts -->
<g id="edge1" class="edge">
<title>src/commandHandler.ts&#45;&gt;src/entry.ts</title>
<path fill="none" stroke="#000000" stroke-width="2" stroke-opacity="0.200000" d="M312.94,-94.3C322.27,-96.33 332.21,-98.36 341.5,-100 375.53,-105.99 414.68,-110.98 442.21,-114.17"/>
<polygon fill="#000000" fill-opacity="0.200000" stroke="#000000" stroke-width="2" stroke-opacity="0.200000" points="441.87,-116.59 448.07,-115.18 442.35,-112.41 441.87,-116.59"/>
</g>
<!-- src/uid.ts -->
<g id="node3" class="node">
<title>src/uid.ts</title>
<g id="a_node3"><a xlink:href="src/uid.ts" xlink:title="uid.ts">
<path fill="#ddfeff" stroke="black" d="M411.08,-93.88C411.08,-93.88 368.92,-93.88 368.92,-93.88 365.96,-93.88 363,-90.92 363,-87.96 363,-87.96 363,-82.04 363,-82.04 363,-79.08 365.96,-76.12 368.92,-76.12 368.92,-76.12 411.08,-76.12 411.08,-76.12 414.04,-76.12 417,-79.08 417,-82.04 417,-82.04 417,-87.96 417,-87.96 417,-90.92 414.04,-93.88 411.08,-93.88"/>
<text text-anchor="start" x="379.12" y="-81.33" font-family="Helvetica,sans-Serif" font-size="9.00">uid.ts</text>
</a>
</g>
</g>
<!-- src/commandHandler.ts&#45;&gt;src/uid.ts -->
<g id="edge2" class="edge">
<title>src/commandHandler.ts&#45;&gt;src/uid.ts</title>
<path fill="none" stroke="#000000" stroke-width="2" stroke-opacity="0.200000" d="M322.15,-85C332.82,-85 343.91,-85 353.92,-85"/>
<polygon fill="#000000" fill-opacity="0.200000" stroke="#000000" stroke-width="2" stroke-opacity="0.200000" points="353.77,-87.1 359.77,-85 353.77,-82.9 353.77,-87.1"/>
</g>
<!-- src/configLoader.ts -->
<g id="node4" class="node">
<title>src/configLoader.ts</title>
<g id="a_node4"><a xlink:href="src/configLoader.ts" xlink:title="configLoader.ts">
<path fill="#ccffcc" stroke="black" d="M89.08,-144.88C89.08,-144.88 21.92,-144.88 21.92,-144.88 18.96,-144.88 16,-141.92 16,-138.96 16,-138.96 16,-133.04 16,-133.04 16,-130.08 18.96,-127.12 21.92,-127.12 21.92,-127.12 89.08,-127.12 89.08,-127.12 92.04,-127.12 95,-130.08 95,-133.04 95,-133.04 95,-138.96 95,-138.96 95,-141.92 92.04,-144.88 89.08,-144.88"/>
<text text-anchor="start" x="24" y="-132.32" font-family="Helvetica,sans-Serif" font-size="9.00">configLoader.ts</text>
</a>
</g>
</g>
<!-- src/dataLayerLoader.ts -->
<g id="node5" class="node">
<title>src/dataLayerLoader.ts</title>
<g id="a_node5"><a xlink:href="src/dataLayerLoader.ts" xlink:title="dataLayerLoader.ts">
<path fill="#ddfeff" stroke="black" d="M197.58,-100.88C197.58,-100.88 113.92,-100.88 113.92,-100.88 110.96,-100.88 108,-97.92 108,-94.96 108,-94.96 108,-89.04 108,-89.04 108,-86.08 110.96,-83.12 113.92,-83.12 113.92,-83.12 197.58,-83.12 197.58,-83.12 200.54,-83.12 203.5,-86.08 203.5,-89.04 203.5,-89.04 203.5,-94.96 203.5,-94.96 203.5,-97.92 200.54,-100.88 197.58,-100.88"/>
<text text-anchor="start" x="116" y="-88.33" font-family="Helvetica,sans-Serif" font-size="9.00">dataLayerLoader.ts</text>
</a>
</g>
</g>
<!-- src/dataLayerLoader.ts&#45;&gt;src/commandHandler.ts -->
<g id="edge3" class="edge">
<title>src/dataLayerLoader.ts&#45;&gt;src/commandHandler.ts</title>
<path fill="none" stroke="#000000" stroke-width="2" stroke-opacity="0.200000" d="M203.75,-89.13C207.11,-88.93 210.51,-88.72 213.91,-88.51"/>
<polygon fill="#000000" fill-opacity="0.200000" stroke="#000000" stroke-width="2" stroke-opacity="0.200000" points="214.03,-90.43 219.89,-87.97 213.78,-86.23 214.03,-90.43"/>
</g>
<!-- src/dispatcher.ts -->
<g id="node6" class="node">
<title>src/dispatcher.ts</title>
<g id="a_node6"><a xlink:href="src/dispatcher.ts" xlink:title="dispatcher.ts">
<path fill="#ddfeff" stroke="black" d="M300.46,-123.88C300.46,-123.88 244.54,-123.88 244.54,-123.88 241.58,-123.88 238.62,-120.92 238.62,-117.96 238.62,-117.96 238.62,-112.04 238.62,-112.04 238.62,-109.08 241.58,-106.12 244.54,-106.12 244.54,-106.12 300.46,-106.12 300.46,-106.12 303.42,-106.12 306.38,-109.08 306.38,-112.04 306.38,-112.04 306.38,-117.96 306.38,-117.96 306.38,-120.92 303.42,-123.88 300.46,-123.88"/>
<text text-anchor="start" x="246.62" y="-111.33" font-family="Helvetica,sans-Serif" font-size="9.00">dispatcher.ts</text>
</a>
</g>
</g>
<!-- src/dataLayerLoader.ts&#45;&gt;src/dispatcher.ts -->
<g id="edge4" class="edge">
<title>src/dataLayerLoader.ts&#45;&gt;src/dispatcher.ts</title>
<path fill="none" stroke="#000000" stroke-width="2" stroke-opacity="0.200000" d="M203.42,-101.35C212.08,-103.09 221.08,-104.89 229.58,-106.6"/>
<polygon fill="#000000" fill-opacity="0.200000" stroke="#000000" stroke-width="2" stroke-opacity="0.200000" points="229.94,-109.21 236.23,-108.33 230.76,-105.09 229.94,-109.21"/>
</g>
<!-- src/entryRepository.ts -->
<g id="node7" class="node">
<title>src/entryRepository.ts</title>
<g id="a_node7"><a xlink:href="src/entryRepository.ts" xlink:title="entryRepository.ts">
<path fill="#ddfeff" stroke="black" d="M428.83,-137.88C428.83,-137.88 351.17,-137.88 351.17,-137.88 348.21,-137.88 345.25,-134.92 345.25,-131.96 345.25,-131.96 345.25,-126.04 345.25,-126.04 345.25,-123.08 348.21,-120.12 351.17,-120.12 351.17,-120.12 428.83,-120.12 428.83,-120.12 431.79,-120.12 434.75,-123.08 434.75,-126.04 434.75,-126.04 434.75,-131.96 434.75,-131.96 434.75,-134.92 431.79,-137.88 428.83,-137.88"/>
<text text-anchor="start" x="353.25" y="-125.33" font-family="Helvetica,sans-Serif" font-size="9.00">entryRepository.ts</text>
</a>
</g>
</g>
<!-- src/dataLayerLoader.ts&#45;&gt;src/entryRepository.ts -->
<g id="edge5" class="edge">
<title>src/dataLayerLoader.ts&#45;&gt;src/entryRepository.ts</title>
<path fill="none" stroke="#000000" stroke-width="2" stroke-opacity="0.200000" d="M167.27,-101.36C178.53,-110.7 197.38,-124.43 216.5,-130 255.47,-141.34 301.52,-140.4 336.23,-136.99"/>
<polygon fill="#000000" fill-opacity="0.200000" stroke="#000000" stroke-width="2" stroke-opacity="0.200000" points="336.06,-138.8 341.8,-136.08 335.61,-134.63 336.06,-138.8"/>
</g>
<!-- src/fileStoreAdapter.ts -->
<g id="node8" class="node">
<title>src/fileStoreAdapter.ts</title>
<g id="a_node8"><a xlink:href="src/fileStoreAdapter.ts" xlink:title="fileStoreAdapter.ts">
<path fill="#ddfeff" stroke="black" d="M312.08,-33.88C312.08,-33.88 232.92,-33.88 232.92,-33.88 229.96,-33.88 227,-30.92 227,-27.96 227,-27.96 227,-22.04 227,-22.04 227,-19.08 229.96,-16.12 232.92,-16.12 232.92,-16.12 312.08,-16.12 312.08,-16.12 315.04,-16.12 318,-19.08 318,-22.04 318,-22.04 318,-27.96 318,-27.96 318,-30.92 315.04,-33.88 312.08,-33.88"/>
<text text-anchor="start" x="235" y="-21.32" font-family="Helvetica,sans-Serif" font-size="9.00">fileStoreAdapter.ts</text>
</a>
</g>
</g>
<!-- src/dataLayerLoader.ts&#45;&gt;src/fileStoreAdapter.ts -->
<g id="edge6" class="edge">
<title>src/dataLayerLoader.ts&#45;&gt;src/fileStoreAdapter.ts</title>
<path fill="none" stroke="#000000" stroke-width="2" stroke-opacity="0.200000" d="M195.67,-82.81C198.52,-81.18 201.18,-79.26 203.5,-77 215.99,-64.85 203.74,-51.88 216.5,-40 217.34,-39.22 218.21,-38.48 219.11,-37.78"/>
<polygon fill="#000000" fill-opacity="0.200000" stroke="#000000" stroke-width="2" stroke-opacity="0.200000" points="220.59,-39.08 224.57,-34.12 218.37,-35.52 220.59,-39.08"/>
</g>
<!-- src/memoryStoreAdapter.ts -->
<g id="node9" class="node">
<title>src/memoryStoreAdapter.ts</title>
<g id="a_node9"><a xlink:href="src/memoryStoreAdapter.ts" xlink:title="memoryStoreAdapter.ts">
<path fill="#ddfeff" stroke="black" d="M322.58,-63.88C322.58,-63.88 222.42,-63.88 222.42,-63.88 219.46,-63.88 216.5,-60.92 216.5,-57.96 216.5,-57.96 216.5,-52.04 216.5,-52.04 216.5,-49.08 219.46,-46.12 222.42,-46.12 222.42,-46.12 322.58,-46.12 322.58,-46.12 325.54,-46.12 328.5,-49.08 328.5,-52.04 328.5,-52.04 328.5,-57.96 328.5,-57.96 328.5,-60.92 325.54,-63.88 322.58,-63.88"/>
<text text-anchor="start" x="224.5" y="-51.33" font-family="Helvetica,sans-Serif" font-size="9.00">memoryStoreAdapter.ts</text>
</a>
</g>
</g>
<!-- src/dataLayerLoader.ts&#45;&gt;src/memoryStoreAdapter.ts -->
<g id="edge7" class="edge">
<title>src/dataLayerLoader.ts&#45;&gt;src/memoryStoreAdapter.ts</title>
<path fill="none" stroke="#000000" stroke-width="2" stroke-opacity="0.200000" d="M188.22,-82.78C193.39,-81.02 198.64,-79.07 203.5,-77 209.54,-74.43 210.41,-72.43 216.5,-70 219.12,-68.95 221.84,-67.95 224.6,-67"/>
<polygon fill="#000000" fill-opacity="0.200000" stroke="#000000" stroke-width="2" stroke-opacity="0.200000" points="225.9,-68.15 230.96,-64.31 224.61,-64.15 225.9,-68.15"/>
</g>
<!-- src/entryRepository.ts&#45;&gt;src/entry.ts -->
<g id="edge9" class="edge">
<title>src/entryRepository.ts&#45;&gt;src/entry.ts</title>
<path fill="none" stroke="#000000" stroke-width="2" stroke-opacity="0.200000" d="M435.01,-123.4C437.51,-123.09 440,-122.77 442.46,-122.46"/>
<polygon fill="#000000" fill-opacity="0.200000" stroke="#000000" stroke-width="2" stroke-opacity="0.200000" points="442.44,-124.19 448.13,-121.35 441.91,-120.03 442.44,-124.19"/>
</g>
<!-- src/dataStoreAdapter.ts -->
<g id="node10" class="node">
<title>src/dataStoreAdapter.ts</title>
<g id="a_node10"><a xlink:href="src/dataStoreAdapter.ts" xlink:title="dataStoreAdapter.ts">
<path fill="#ddfeff" stroke="black" d="M432.58,-63.88C432.58,-63.88 347.42,-63.88 347.42,-63.88 344.46,-63.88 341.5,-60.92 341.5,-57.96 341.5,-57.96 341.5,-52.04 341.5,-52.04 341.5,-49.08 344.46,-46.12 347.42,-46.12 347.42,-46.12 432.58,-46.12 432.58,-46.12 435.54,-46.12 438.5,-49.08 438.5,-52.04 438.5,-52.04 438.5,-57.96 438.5,-57.96 438.5,-60.92 435.54,-63.88 432.58,-63.88"/>
<text text-anchor="start" x="349.5" y="-51.33" font-family="Helvetica,sans-Serif" font-size="9.00">dataStoreAdapter.ts</text>
</a>
</g>
</g>
<!-- src/fileStoreAdapter.ts&#45;&gt;src/dataStoreAdapter.ts -->
<g id="edge10" class="edge">
<title>src/fileStoreAdapter.ts&#45;&gt;src/dataStoreAdapter.ts</title>
<path fill="none" stroke="#000000" stroke-width="2" stroke-opacity="0.200000" d="M309.41,-34.33C320.49,-37.21 332.83,-40.41 344.43,-43.42"/>
<polygon fill="#000000" fill-opacity="0.200000" stroke="#000000" stroke-width="2" stroke-opacity="0.200000" points="344.78,-46.2 351.11,-45.68 345.83,-42.14 344.78,-46.2"/>
</g>
<!-- src/memoryStoreAdapter.ts&#45;&gt;src/dataStoreAdapter.ts -->
<g id="edge13" class="edge">
<title>src/memoryStoreAdapter.ts&#45;&gt;src/dataStoreAdapter.ts</title>
<path fill="none" stroke="#000000" stroke-width="2" stroke-opacity="0.200000" d="M328.88,-55C330.02,-55 331.16,-55 332.3,-55"/>
<polygon fill="#000000" fill-opacity="0.200000" stroke="#000000" stroke-width="2" stroke-opacity="0.200000" points="332.01,-57.1 338.01,-55 332.01,-52.9 332.01,-57.1"/>
</g>
<!-- src/dataStoreAdapter.ts&#45;&gt;src/entry.ts -->
<g id="edge8" class="edge">
<title>src/dataStoreAdapter.ts&#45;&gt;src/entry.ts</title>
<path fill="none" stroke="#000000" stroke-width="2" stroke-opacity="0.200000" d="M427.81,-64.21C431.57,-65.85 435.21,-67.76 438.5,-70 450.53,-78.18 460.75,-91.14 467.7,-101.54"/>
<polygon fill="#000000" fill-opacity="0.200000" stroke="#000000" stroke-width="2" stroke-opacity="0.200000" points="466.37,-102.93 471.36,-106.86 469.92,-100.67 466.37,-102.93"/>
</g>
<!-- src/index.ts -->
<g id="node11" class="node">
<title>src/index.ts</title>
<g id="a_node11"><a xlink:href="src/index.ts" xlink:title="index.ts">
<path fill="#ddfeff" stroke="black" d="M76.58,-70.88C76.58,-70.88 34.42,-70.88 34.42,-70.88 31.46,-70.88 28.5,-67.92 28.5,-64.96 28.5,-64.96 28.5,-59.04 28.5,-59.04 28.5,-56.08 31.46,-53.12 34.42,-53.12 34.42,-53.12 76.58,-53.12 76.58,-53.12 79.54,-53.12 82.5,-56.08 82.5,-59.04 82.5,-59.04 82.5,-64.96 82.5,-64.96 82.5,-67.92 79.54,-70.88 76.58,-70.88"/>
<text text-anchor="start" x="39.75" y="-58.33" font-family="Helvetica,sans-Serif" font-size="9.00">index.ts</text>
</a>
</g>
</g>
<!-- src/index.ts&#45;&gt;src/dataLayerLoader.ts -->
<g id="edge11" class="edge">
<title>src/index.ts&#45;&gt;src/dataLayerLoader.ts</title>
<path fill="none" stroke="#000000" stroke-width="2" stroke-opacity="0.200000" d="M82.83,-70.04C92.98,-73.14 104.79,-76.74 115.87,-80.13"/>
<polygon fill="#000000" fill-opacity="0.200000" stroke="#000000" stroke-width="2" stroke-opacity="0.200000" points="115.82,-82.92 122.17,-82.66 117.04,-78.9 115.82,-82.92"/>
</g>
<!-- src/parser.ts -->
<g id="node12" class="node">
<title>src/parser.ts</title>
<g id="a_node12"><a xlink:href="src/parser.ts" xlink:title="parser.ts">
<path fill="#ddfeff" stroke="black" d="M176.83,-70.88C176.83,-70.88 134.67,-70.88 134.67,-70.88 131.71,-70.88 128.75,-67.92 128.75,-64.96 128.75,-64.96 128.75,-59.04 128.75,-59.04 128.75,-56.08 131.71,-53.12 134.67,-53.12 134.67,-53.12 176.83,-53.12 176.83,-53.12 179.79,-53.12 182.75,-56.08 182.75,-59.04 182.75,-59.04 182.75,-64.96 182.75,-64.96 182.75,-67.92 179.79,-70.88 176.83,-70.88"/>
<text text-anchor="start" x="138.12" y="-58.33" font-family="Helvetica,sans-Serif" font-size="9.00">parser.ts</text>
</a>
</g>
</g>
<!-- src/index.ts&#45;&gt;src/parser.ts -->
<g id="edge12" class="edge">
<title>src/index.ts&#45;&gt;src/parser.ts</title>
<path fill="none" stroke="#000000" stroke-width="2" stroke-opacity="0.200000" d="M82.83,-62C94.06,-62 107.34,-62 119.41,-62"/>
<polygon fill="#000000" fill-opacity="0.200000" stroke="#000000" stroke-width="2" stroke-opacity="0.200000" points="119.35,-64.1 125.35,-62 119.35,-59.9 119.35,-64.1"/>
</g>
<!-- src/repl.ts -->
<g id="node13" class="node">
<title>src/repl.ts</title>
<g id="a_node13"><a xlink:href="src/repl.ts" xlink:title="repl.ts">
<path fill="#ddfeff" stroke="black" d="M76.58,-100.88C76.58,-100.88 34.42,-100.88 34.42,-100.88 31.46,-100.88 28.5,-97.92 28.5,-94.96 28.5,-94.96 28.5,-89.04 28.5,-89.04 28.5,-86.08 31.46,-83.12 34.42,-83.12 34.42,-83.12 76.58,-83.12 76.58,-83.12 79.54,-83.12 82.5,-86.08 82.5,-89.04 82.5,-89.04 82.5,-94.96 82.5,-94.96 82.5,-97.92 79.54,-100.88 76.58,-100.88"/>
<text text-anchor="start" x="43.12" y="-88.33" font-family="Helvetica,sans-Serif" font-size="9.00">repl.ts</text>
</a>
</g>
</g>
<!-- src/repl.ts&#45;&gt;src/entry.ts -->
<g id="edge15" class="edge">
<title>src/repl.ts&#45;&gt;src/entry.ts</title>
<path fill="none" stroke="#000000" stroke-width="2" stroke-opacity="0.200000" d="M81.85,-101.29C113.05,-112.25 167.87,-130 216.5,-138 313.89,-154.03 344.03,-172.6 438.5,-144 446.34,-141.63 454.04,-137.1 460.5,-132.48"/>
<polygon fill="#000000" fill-opacity="0.200000" stroke="#000000" stroke-width="2" stroke-opacity="0.200000" points="461.97,-133.46 465.45,-128.14 459.41,-130.13 461.97,-133.46"/>
</g>
<!-- src/repl.ts&#45;&gt;src/dataLayerLoader.ts -->
<g id="edge14" class="edge">
<title>src/repl.ts&#45;&gt;src/dataLayerLoader.ts</title>
<path fill="none" stroke="#000000" stroke-width="2" stroke-opacity="0.200000" d="M82.83,-92C87.9,-92 93.39,-92 99,-92"/>
<polygon fill="#000000" fill-opacity="0.200000" stroke="#000000" stroke-width="2" stroke-opacity="0.200000" points="98.86,-94.1 104.86,-92 98.86,-89.9 98.86,-94.1"/>
</g>
<!-- src/repl.ts&#45;&gt;src/parser.ts -->
<g id="edge16" class="edge">
<title>src/repl.ts&#45;&gt;src/parser.ts</title>
<path fill="none" stroke="#000000" stroke-width="2" stroke-opacity="0.200000" d="M82.83,-83.96C94.17,-80.5 107.6,-76.4 119.76,-72.68"/>
<polygon fill="#000000" fill-opacity="0.200000" stroke="#000000" stroke-width="2" stroke-opacity="0.200000" points="121.22,-73.82 126.35,-70.06 120,-69.81 121.22,-73.82"/>
</g>
</g>
</svg>
