<?xml version="1.0" encoding="UTF-8" standalone="no"?>
<!DOCTYPE svg PUBLIC "-//W3C//DTD SVG 1.1//EN"
 "http://www.w3.org/Graphics/SVG/1.1/DTD/svg11.dtd">
<!-- Generated by graphviz version 8.1.0 (20230707.0739)
 -->
<!-- Title: dependency&#45;cruiser output Pages: 1 -->
<svg width="463pt" height="196pt"
 viewBox="0.00 0.00 462.50 196.00" xmlns="http://www.w3.org/2000/svg" xmlns:xlink="http://www.w3.org/1999/xlink">
<g id="graph0" class="graph" transform="scale(1 1) rotate(0) translate(4 192)">
<title>dependency&#45;cruiser output</title>
<polygon fill="white" stroke="none" points="-4,4 -4,-192 458.5,-192 458.5,4 -4,4"/>
<g id="clust1" class="cluster">
<title>cluster_src</title>
<path fill="#ffffff" stroke="black" stroke-width="2" d="M20,-8C20,-8 434.5,-8 434.5,-8 440.5,-8 446.5,-14 446.5,-20 446.5,-20 446.5,-168 446.5,-168 446.5,-174 440.5,-180 434.5,-180 434.5,-180 20,-180 20,-180 14,-180 8,-174 8,-168 8,-168 8,-20 8,-20 8,-14 14,-8 20,-8"/>
<text text-anchor="middle" x="227.25" y="-167.45" font-family="Helvetica,sans-Serif" font-weight="bold" font-size="9.00">src</text>
</g>
<!-- src/commandHandler.ts -->
<g id="node1" class="node">
<title>src/commandHandler.ts</title>
<g id="a_node1"><a xlink:href="src/commandHandler.ts" xlink:title="commandHandler.ts">
<path fill="#ddfeff" stroke="black" d="M315.83,-153.88C315.83,-153.88 229.17,-153.88 229.17,-153.88 226.21,-153.88 223.25,-150.92 223.25,-147.96 223.25,-147.96 223.25,-142.04 223.25,-142.04 223.25,-139.08 226.21,-136.12 229.17,-136.12 229.17,-136.12 315.83,-136.12 315.83,-136.12 318.79,-136.12 321.75,-139.08 321.75,-142.04 321.75,-142.04 321.75,-147.96 321.75,-147.96 321.75,-150.92 318.79,-153.88 315.83,-153.88"/>
<text text-anchor="start" x="231.25" y="-141.32" font-family="Helvetica,sans-Serif" font-size="9.00">commandHandler.ts</text>
</a>
</g>
</g>
<!-- src/entry.ts -->
<g id="node2" class="node">
<title>src/entry.ts</title>
<g id="a_node2"><a xlink:href="src/entry.ts" xlink:title="entry.ts">
<path fill="#ddfeff" stroke="black" d="M411.08,-138.88C411.08,-138.88 368.92,-138.88 368.92,-138.88 365.96,-138.88 363,-135.92 363,-132.96 363,-132.96 363,-127.04 363,-127.04 363,-124.08 365.96,-121.12 368.92,-121.12 368.92,-121.12 411.08,-121.12 411.08,-121.12 414.04,-121.12 417,-124.08 417,-127.04 417,-127.04 417,-132.96 417,-132.96 417,-135.92 414.04,-138.88 411.08,-138.88"/>
<text text-anchor="start" x="375.38" y="-126.33" font-family="Helvetica,sans-Serif" font-size="9.00">entry.ts</text>
</a>
</g>
</g>
<!-- src/commandHandler.ts&#45;&gt;src/entry.ts -->
<g id="edge1" class="edge">
<title>src/commandHandler.ts&#45;&gt;src/entry.ts</title>
<path fill="none" stroke="#000000" stroke-width="2" stroke-opacity="0.200000" d="M322.15,-138.68C332.82,-137.3 343.91,-135.86 353.92,-134.56"/>
<polygon fill="#000000" fill-opacity="0.200000" stroke="#000000" stroke-width="2" stroke-opacity="0.200000" points="354.09,-136.26 359.77,-133.41 353.55,-132.1 354.09,-136.26"/>
</g>
<!-- src/configLoader.ts -->
<g id="node3" class="node">
<title>src/configLoader.ts</title>
<g id="a_node3"><a xlink:href="src/configLoader.ts" xlink:title="configLoader.ts">
<path fill="#ccffcc" stroke="black" d="M89.08,-149.88C89.08,-149.88 21.92,-149.88 21.92,-149.88 18.96,-149.88 16,-146.92 16,-143.96 16,-143.96 16,-138.04 16,-138.04 16,-135.08 18.96,-132.12 21.92,-132.12 21.92,-132.12 89.08,-132.12 89.08,-132.12 92.04,-132.12 95,-135.08 95,-138.04 95,-138.04 95,-143.96 95,-143.96 95,-146.92 92.04,-149.88 89.08,-149.88"/>
<text text-anchor="start" x="24" y="-137.32" font-family="Helvetica,sans-Serif" font-size="9.00">configLoader.ts</text>
</a>
</g>
</g>
<!-- src/dataLayerLoader.ts -->
<g id="node4" class="node">
<title>src/dataLayerLoader.ts</title>
<g id="a_node4"><a xlink:href="src/dataLayerLoader.ts" xlink:title="dataLayerLoader.ts">
<path fill="#ddfeff" stroke="black" d="M197.58,-97.88C197.58,-97.88 113.92,-97.88 113.92,-97.88 110.96,-97.88 108,-94.92 108,-91.96 108,-91.96 108,-86.04 108,-86.04 108,-83.08 110.96,-80.12 113.92,-80.12 113.92,-80.12 197.58,-80.12 197.58,-80.12 200.54,-80.12 203.5,-83.08 203.5,-86.04 203.5,-86.04 203.5,-91.96 203.5,-91.96 203.5,-94.92 200.54,-97.88 197.58,-97.88"/>
<text text-anchor="start" x="116" y="-85.33" font-family="Helvetica,sans-Serif" font-size="9.00">dataLayerLoader.ts</text>
</a>
</g>
</g>
<!-- src/dataLayerLoader.ts&#45;&gt;src/commandHandler.ts -->
<g id="edge2" class="edge">
<title>src/dataLayerLoader.ts&#45;&gt;src/commandHandler.ts</title>
<path fill="none" stroke="#000000" stroke-width="2" stroke-opacity="0.200000" d="M194.9,-98.28C197.99,-99.89 200.91,-101.78 203.5,-104 213.31,-112.41 206.51,-121.81 216.5,-130 216.92,-130.34 217.34,-130.68 217.78,-131.01"/>
<polygon fill="#000000" fill-opacity="0.200000" stroke="#000000" stroke-width="2" stroke-opacity="0.200000" points="217.09,-133.29 223.29,-134.67 219.3,-129.72 217.09,-133.29"/>
</g>
<!-- src/dispatcher.ts -->
<g id="node5" class="node">
<title>src/dispatcher.ts</title>
<g id="a_node5"><a xlink:href="src/dispatcher.ts" xlink:title="dispatcher.ts">
<path fill="#ddfeff" stroke="black" d="M300.46,-63.88C300.46,-63.88 244.54,-63.88 244.54,-63.88 241.58,-63.88 238.62,-60.92 238.62,-57.96 238.62,-57.96 238.62,-52.04 238.62,-52.04 238.62,-49.08 241.58,-46.12 244.54,-46.12 244.54,-46.12 300.46,-46.12 300.46,-46.12 303.42,-46.12 306.38,-49.08 306.38,-52.04 306.38,-52.04 306.38,-57.96 306.38,-57.96 306.38,-60.92 303.42,-63.88 300.46,-63.88"/>
<text text-anchor="start" x="246.62" y="-51.33" font-family="Helvetica,sans-Serif" font-size="9.00">dispatcher.ts</text>
</a>
</g>
</g>
<!-- src/dataLayerLoader.ts&#45;&gt;src/dispatcher.ts -->
<g id="edge3" class="edge">
<title>src/dataLayerLoader.ts&#45;&gt;src/dispatcher.ts</title>
<path fill="none" stroke="#000000" stroke-width="2" stroke-opacity="0.200000" d="M185.24,-79.67C195.12,-76.51 206.27,-73.02 216.5,-70 220.78,-68.74 225.26,-67.45 229.73,-66.19"/>
<polygon fill="#000000" fill-opacity="0.200000" stroke="#000000" stroke-width="2" stroke-opacity="0.200000" points="231.06,-67.45 236.28,-63.82 229.94,-63.4 231.06,-67.45"/>
</g>
<!-- src/entryRepository.ts -->
<g id="node6" class="node">
<title>src/entryRepository.ts</title>
<g id="a_node6"><a xlink:href="src/entryRepository.ts" xlink:title="entryRepository.ts">
<path fill="#ddfeff" stroke="black" d="M311.33,-123.88C311.33,-123.88 233.67,-123.88 233.67,-123.88 230.71,-123.88 227.75,-120.92 227.75,-117.96 227.75,-117.96 227.75,-112.04 227.75,-112.04 227.75,-109.08 230.71,-106.12 233.67,-106.12 233.67,-106.12 311.33,-106.12 311.33,-106.12 314.29,-106.12 317.25,-109.08 317.25,-112.04 317.25,-112.04 317.25,-117.96 317.25,-117.96 317.25,-120.92 314.29,-123.88 311.33,-123.88"/>
<text text-anchor="start" x="235.75" y="-111.33" font-family="Helvetica,sans-Serif" font-size="9.00">entryRepository.ts</text>
</a>
</g>
</g>
<!-- src/dataLayerLoader.ts&#45;&gt;src/entryRepository.ts -->
<g id="edge4" class="edge">
<title>src/dataLayerLoader.ts&#45;&gt;src/entryRepository.ts</title>
<path fill="none" stroke="#000000" stroke-width="2" stroke-opacity="0.200000" d="M197.85,-98.31C205.6,-100.07 213.78,-101.92 221.75,-103.73"/>
<polygon fill="#000000" fill-opacity="0.200000" stroke="#000000" stroke-width="2" stroke-opacity="0.200000" points="221.98,-106.39 228.3,-105.66 222.91,-102.29 221.98,-106.39"/>
</g>
<!-- src/fileStoreAdapter.ts -->
<g id="node7" class="node">
<title>src/fileStoreAdapter.ts</title>
<g id="a_node7"><a xlink:href="src/fileStoreAdapter.ts" xlink:title="fileStoreAdapter.ts">
<path fill="#ddfeff" stroke="black" d="M312.08,-93.88C312.08,-93.88 232.92,-93.88 232.92,-93.88 229.96,-93.88 227,-90.92 227,-87.96 227,-87.96 227,-82.04 227,-82.04 227,-79.08 229.96,-76.12 232.92,-76.12 232.92,-76.12 312.08,-76.12 312.08,-76.12 315.04,-76.12 318,-79.08 318,-82.04 318,-82.04 318,-87.96 318,-87.96 318,-90.92 315.04,-93.88 312.08,-93.88"/>
<text text-anchor="start" x="235" y="-81.33" font-family="Helvetica,sans-Serif" font-size="9.00">fileStoreAdapter.ts</text>
</a>
</g>
</g>
<!-- src/dataLayerLoader.ts&#45;&gt;src/fileStoreAdapter.ts -->
<g id="edge5" class="edge">
<title>src/dataLayerLoader.ts&#45;&gt;src/fileStoreAdapter.ts</title>
<path fill="none" stroke="#000000" stroke-width="2" stroke-opacity="0.200000" d="M203.75,-87.36C208.36,-87.2 213.05,-87.04 217.71,-86.87"/>
<polygon fill="#000000" fill-opacity="0.200000" stroke="#000000" stroke-width="2" stroke-opacity="0.200000" points="217.68,-88.87 223.6,-86.56 217.53,-84.68 217.68,-88.87"/>
</g>
<!-- src/entryRepository.ts&#45;&gt;src/entry.ts -->
<g id="edge6" class="edge">
<title>src/entryRepository.ts&#45;&gt;src/entry.ts</title>
<path fill="none" stroke="#000000" stroke-width="2" stroke-opacity="0.200000" d="M317.5,-120.71C329.47,-122.27 342.28,-123.93 353.7,-125.42"/>
<polygon fill="#000000" fill-opacity="0.200000" stroke="#000000" stroke-width="2" stroke-opacity="0.200000" points="353.3,-127.87 359.52,-126.56 353.84,-123.71 353.3,-127.87"/>
</g>
<!-- src/dataStoreAdapter.ts -->
<g id="node8" class="node">
<title>src/dataStoreAdapter.ts</title>
<g id="a_node8"><a xlink:href="src/dataStoreAdapter.ts" xlink:title="dataStoreAdapter.ts">
<path fill="#ddfeff" stroke="black" d="M432.58,-78.88C432.58,-78.88 347.42,-78.88 347.42,-78.88 344.46,-78.88 341.5,-75.92 341.5,-72.96 341.5,-72.96 341.5,-67.04 341.5,-67.04 341.5,-64.08 344.46,-61.12 347.42,-61.12 347.42,-61.12 432.58,-61.12 432.58,-61.12 435.54,-61.12 438.5,-64.08 438.5,-67.04 438.5,-67.04 438.5,-72.96 438.5,-72.96 438.5,-75.92 435.54,-78.88 432.58,-78.88"/>
<text text-anchor="start" x="349.5" y="-66.33" font-family="Helvetica,sans-Serif" font-size="9.00">dataStoreAdapter.ts</text>
</a>
</g>
</g>
<!-- src/fileStoreAdapter.ts&#45;&gt;src/dataStoreAdapter.ts -->
<g id="edge7" class="edge">
<title>src/fileStoreAdapter.ts&#45;&gt;src/dataStoreAdapter.ts</title>
<path fill="none" stroke="#000000" stroke-width="2" stroke-opacity="0.200000" d="M318.49,-79.16C323.04,-78.57 327.71,-77.96 332.36,-77.36"/>
<polygon fill="#000000" fill-opacity="0.200000" stroke="#000000" stroke-width="2" stroke-opacity="0.200000" points="332.59,-79.05 338.27,-76.2 332.05,-74.89 332.59,-79.05"/>
</g>
<!-- src/index.ts -->
<g id="node9" class="node">
<title>src/index.ts</title>
<g id="a_node9"><a xlink:href="src/index.ts" xlink:title="index.ts">
<path fill="#ddfeff" stroke="black" d="M76.58,-104.88C76.58,-104.88 34.42,-104.88 34.42,-104.88 31.46,-104.88 28.5,-101.92 28.5,-98.96 28.5,-98.96 28.5,-93.04 28.5,-93.04 28.5,-90.08 31.46,-87.12 34.42,-87.12 34.42,-87.12 76.58,-87.12 76.58,-87.12 79.54,-87.12 82.5,-90.08 82.5,-93.04 82.5,-93.04 82.5,-98.96 82.5,-98.96 82.5,-101.92 79.54,-104.88 76.58,-104.88"/>
<text text-anchor="start" x="39.75" y="-92.33" font-family="Helvetica,sans-Serif" font-size="9.00">index.ts</text>
</a>
</g>
</g>
<!-- src/index.ts&#45;&gt;src/dataLayerLoader.ts -->
<g id="edge8" class="edge">
<title>src/index.ts&#45;&gt;src/dataLayerLoader.ts</title>
<path fill="none" stroke="#000000" stroke-width="2" stroke-opacity="0.200000" d="M82.83,-94.12C87.9,-93.76 93.39,-93.37 99,-92.97"/>
<polygon fill="#000000" fill-opacity="0.200000" stroke="#000000" stroke-width="2" stroke-opacity="0.200000" points="99.03,-94.86 104.86,-92.34 98.73,-90.67 99.03,-94.86"/>
</g>
<!-- src/parser.ts -->
<g id="node10" class="node">
<title>src/parser.ts</title>
<g id="a_node10"><a xlink:href="src/parser.ts" xlink:title="parser.ts">
<path fill="#ddfeff" stroke="black" d="M176.83,-127.88C176.83,-127.88 134.67,-127.88 134.67,-127.88 131.71,-127.88 128.75,-124.92 128.75,-121.96 128.75,-121.96 128.75,-116.04 128.75,-116.04 128.75,-113.08 131.71,-110.12 134.67,-110.12 134.67,-110.12 176.83,-110.12 176.83,-110.12 179.79,-110.12 182.75,-113.08 182.75,-116.04 182.75,-116.04 182.75,-121.96 182.75,-121.96 182.75,-124.92 179.79,-127.88 176.83,-127.88"/>
<text text-anchor="start" x="138.12" y="-115.33" font-family="Helvetica,sans-Serif" font-size="9.00">parser.ts</text>
</a>
</g>
</g>
<!-- src/index.ts&#45;&gt;src/parser.ts -->
<g id="edge9" class="edge">
<title>src/index.ts&#45;&gt;src/parser.ts</title>
<path fill="none" stroke="#000000" stroke-width="2" stroke-opacity="0.200000" d="M82.83,-102.16C94.17,-104.82 107.6,-107.96 119.76,-110.81"/>
<polygon fill="#000000" fill-opacity="0.200000" stroke="#000000" stroke-width="2" stroke-opacity="0.200000" points="120.03,-113.5 126.35,-112.82 120.98,-109.41 120.03,-113.5"/>
</g>
<!-- src/memoryStoreAdapter.ts -->
<g id="node11" class="node">
<title>src/memoryStoreAdapter.ts</title>
<g id="a_node11"><a xlink:href="src/memoryStoreAdapter.ts" xlink:title="memoryStoreAdapter.ts">
<path fill="#ddfeff" stroke="black" d="M322.58,-33.88C322.58,-33.88 222.42,-33.88 222.42,-33.88 219.46,-33.88 216.5,-30.92 216.5,-27.96 216.5,-27.96 216.5,-22.04 216.5,-22.04 216.5,-19.08 219.46,-16.12 222.42,-16.12 222.42,-16.12 322.58,-16.12 322.58,-16.12 325.54,-16.12 328.5,-19.08 328.5,-22.04 328.5,-22.04 328.5,-27.96 328.5,-27.96 328.5,-30.92 325.54,-33.88 322.58,-33.88"/>
<text text-anchor="start" x="224.5" y="-21.32" font-family="Helvetica,sans-Serif" font-size="9.00">memoryStoreAdapter.ts</text>
</a>
</g>
</g>
<!-- src/memoryStoreAdapter.ts&#45;&gt;src/dataStoreAdapter.ts -->
<g id="edge10" class="edge">
<title>src/memoryStoreAdapter.ts&#45;&gt;src/dataStoreAdapter.ts</title>
<path fill="none" stroke="#000000" stroke-width="2" stroke-opacity="0.200000" d="M311.39,-34.29C317.18,-36.01 323.04,-37.92 328.5,-40 340.73,-44.65 353.79,-50.94 364.63,-56.57"/>
<polygon fill="#000000" fill-opacity="0.200000" stroke="#000000" stroke-width="2" stroke-opacity="0.200000" points="364.16,-58.75 370.44,-59.7 366.12,-55.03 364.16,-58.75"/>
</g>
</g>
</svg>
